<svg width="1200" height="328" viewBox="0 0 1200 328" xmlns="http://www.w3.org/2000/svg" role="img" aria-labelledby="bn-t bn-d">
<title id="bn-t">Krishna Anubhav: finance, engineering and quantitative systems</title>
<desc id="bn-d">Animated profile banner for Krishna Anubhav (Kavy). Engineer, then SaaS founder and operator, then MBA, now investment banking. I spent years building businesses; now I am learning how investors value them. The rising line and bars on the right are decorative and carry no data. The ticker along the bottom reads: 15 PULL REQUESTS MERGED INTO OTHER PROJECTS  •  41 OPENED IN TOTAL  •  6 ORIGINAL PUBLIC REPOS  •  MERGED INTO QUANTLIB, EDGARTOOLS, EVER-GAUZY, RISKFOLIO-LIB, TRADE-FRAME, FINANCEPY, FINANCETOOLKIT, STOCKSTATS  •  LANGUAGES PYTHON 41% · RUST 36% · C++ 9% · JAVASCRIPT 7%</desc>
<defs>
<linearGradient id="bn-signal" x1="0" y1="0" x2="1" y2="0"><stop offset="0%" stop-color="#00FF66"/><stop offset="100%" stop-color="#B6FF2E"/></linearGradient>
<linearGradient id="bn-fade" x1="0" y1="0" x2="0" y2="1"><stop offset="0%" stop-color="#00FF66" stop-opacity="0.12"/><stop offset="100%" stop-color="#00FF66" stop-opacity="0"/></linearGradient>
<pattern id="bn-grid" width="40" height="40" patternUnits="userSpaceOnUse"><path d="M 40 0 L 0 0 0 40" fill="none" stroke="#1a1b1a" stroke-width="1"/></pattern>
<clipPath id="bn-clip"><rect width="1200" height="328" rx="14"/></clipPath>
<clipPath id="bn-type"><rect class="a" style="animation:k27 16.0s steps(77,end) infinite" x="56" y="226" width="734" height="26"/></clipPath>
<path id="bn-route" d="M 800 246 C 850 242, 890 230, 930 218 S 1000 190, 1050 164 S 1110 114, 1160 84"/>
<path id="tg37" d="M4.08 -1.87Q4.08 -1.41 4.39 -1.1Q4.69 -0.79 5.15 -0.79Q5.6 -0.79 5.92 -1.1Q6.23 -1.42 6.23 -1.87Q6.23 -2.32 5.91 -2.64Q5.6 -2.95 5.15 -2.95Q4.69 -2.95 4.39 -2.64Q4.08 -2.33 4.08 -1.87ZM3.29 -1.87Q3.29 -2.66 3.83 -3.2Q4.37 -3.74 5.15 -3.74Q5.53 -3.74 5.86 -3.6Q6.2 -3.46 6.47 -3.19Q6.74 -2.92 6.88 -2.58Q7.03 -2.24 7.03 -1.87Q7.03 -1.09 6.49 -0.54Q5.94 0 5.15 0Q4.35 0 3.82 -0.54Q3.29 -1.07 3.29 -1.87ZM0.71 -2.72 0.5 -3.29 6.61 -5.74 6.85 -5.17ZM0.98 -6.52Q0.98 -6.05 1.29 -5.75Q1.6 -5.44 2.06 -5.44Q2.51 -5.44 2.83 -5.75Q3.15 -6.06 3.15 -6.52Q3.15 -6.97 2.83 -7.28Q2.51 -7.59 2.06 -7.59Q1.61 -7.59 1.3 -7.28Q0.98 -6.97 0.98 -6.52ZM0.19 -6.52Q0.19 -7.31 0.73 -7.85Q1.27 -8.39 2.06 -8.39Q2.44 -8.39 2.78 -8.25Q3.12 -8.11 3.39 -7.85Q3.65 -7.58 3.79 -7.24Q3.94 -6.9 3.94 -6.52Q3.94 -5.73 3.39 -5.19Q2.85 -4.65 2.06 -4.65Q1.27 -4.65 0.73 -5.19Q0.19 -5.72 0.19 -6.52Z"/><path id="tg43" d="M4.1 -6.86V-4.26H6.71V-3.26H4.1V-0.66H3.12V-3.26H0.52V-4.26H3.12V-6.86Z"/><path id="tg44" d="M2.94 -1.78H4.42V-0.56L3.26 1.68H2.36L2.94 -0.56Z"/><path id="tg45" d="M2.09 -3.77H5.14V-2.81H2.09Z"/><path id="tg49" d="M1.58 -1H3.42V-7.68L1.44 -7.24V-8.31L3.41 -8.75H4.59V-1H6.41V0H1.58Z"/><path id="tg51" d="M4.55 -4.68Q5.41 -4.45 5.87 -3.87Q6.32 -3.29 6.32 -2.41Q6.32 -1.21 5.51 -0.52Q4.7 0.17 3.26 0.17Q2.66 0.17 2.03 0.06Q1.41 -0.05 0.8 -0.26V-1.44Q1.4 -1.13 1.98 -0.98Q2.56 -0.83 3.13 -0.83Q4.11 -0.83 4.63 -1.27Q5.15 -1.71 5.15 -2.53Q5.15 -3.29 4.63 -3.74Q4.11 -4.19 3.22 -4.19H2.31V-5.16H3.22Q4.03 -5.16 4.49 -5.52Q4.95 -5.88 4.95 -6.52Q4.95 -7.19 4.52 -7.55Q4.1 -7.91 3.31 -7.91Q2.79 -7.91 2.23 -7.79Q1.68 -7.68 1.07 -7.44V-8.53Q1.78 -8.72 2.33 -8.81Q2.88 -8.91 3.31 -8.91Q4.59 -8.91 5.35 -8.26Q6.12 -7.62 6.12 -6.56Q6.12 -5.84 5.72 -5.36Q5.31 -4.88 4.55 -4.68Z"/><path id="tg52" d="M4.31 -7.67 1.55 -3.05H4.31ZM4.11 -8.75H5.48V-3.05H6.65V-2.09H5.48V0H4.31V-2.09H0.6V-3.21Z"/><path id="tg53" d="M1.21 -8.75H5.64V-7.75H2.29V-5.6Q2.54 -5.7 2.8 -5.74Q3.05 -5.78 3.31 -5.78Q4.67 -5.78 5.47 -4.98Q6.26 -4.18 6.26 -2.81Q6.26 -1.42 5.43 -0.63Q4.59 0.17 3.15 0.17Q2.45 0.17 1.87 0.08Q1.29 -0.02 0.84 -0.21V-1.41Q1.38 -1.11 1.92 -0.97Q2.47 -0.83 3.04 -0.83Q4.01 -0.83 4.54 -1.34Q5.07 -1.86 5.07 -2.81Q5.07 -3.74 4.53 -4.27Q3.98 -4.79 3 -4.79Q2.53 -4.79 2.07 -4.68Q1.62 -4.57 1.21 -4.35Z"/><path id="tg54" d="M5.81 -8.55V-7.46Q5.44 -7.68 5.02 -7.8Q4.61 -7.91 4.15 -7.91Q3.03 -7.91 2.45 -7.06Q1.87 -6.22 1.87 -4.57Q2.15 -5.16 2.65 -5.47Q3.15 -5.78 3.79 -5.78Q5.06 -5.78 5.75 -5.01Q6.45 -4.23 6.45 -2.81Q6.45 -1.39 5.73 -0.61Q5.02 0.17 3.72 0.17Q2.2 0.17 1.49 -0.92Q0.78 -2.02 0.78 -4.37Q0.78 -6.58 1.63 -7.74Q2.48 -8.91 4.1 -8.91Q4.54 -8.91 4.97 -8.82Q5.4 -8.72 5.81 -8.55ZM3.7 -4.86Q2.94 -4.86 2.51 -4.31Q2.07 -3.77 2.07 -2.81Q2.07 -1.85 2.51 -1.3Q2.94 -0.76 3.7 -0.76Q4.48 -0.76 4.88 -1.27Q5.28 -1.79 5.28 -2.81Q5.28 -3.83 4.88 -4.34Q4.48 -4.86 3.7 -4.86Z"/><path id="tg55" d="M0.81 -8.75H6.32V-8.24L3.19 0H1.96L5 -7.75H0.81Z"/><path id="tg57" d="M3.49 -3.88Q4.25 -3.88 4.68 -4.42Q5.11 -4.97 5.11 -5.93Q5.11 -6.89 4.68 -7.44Q4.25 -7.98 3.49 -7.98Q2.71 -7.98 2.31 -7.46Q1.91 -6.94 1.91 -5.93Q1.91 -4.91 2.31 -4.39Q2.7 -3.88 3.49 -3.88ZM1.38 -0.18V-1.27Q1.75 -1.05 2.17 -0.94Q2.58 -0.83 3.04 -0.83Q4.16 -0.83 4.74 -1.67Q5.31 -2.52 5.31 -4.17Q5.04 -3.58 4.54 -3.27Q4.04 -2.95 3.4 -2.95Q2.13 -2.95 1.44 -3.73Q0.74 -4.51 0.74 -5.94Q0.74 -7.35 1.46 -8.13Q2.17 -8.91 3.47 -8.91Q4.99 -8.91 5.7 -7.81Q6.41 -6.71 6.41 -4.37Q6.41 -2.16 5.56 -0.99Q4.71 0.17 3.08 0.17Q2.65 0.17 2.22 0.08Q1.79 -0.01 1.38 -0.18Z"/><path id="tg65" d="M3.61 -7.71 2.36 -3.23H4.86ZM2.89 -8.75H4.33L7.01 0H5.78L5.14 -2.28H2.07L1.44 0H0.22Z"/><path id="tg66" d="M2.16 -4.18V-0.97H3.56Q4.59 -0.97 5.03 -1.33Q5.47 -1.69 5.47 -2.52Q5.47 -3.38 5.01 -3.78Q4.55 -4.18 3.56 -4.18ZM2.16 -7.78V-5.14H3.54Q4.39 -5.14 4.78 -5.47Q5.16 -5.79 5.16 -6.53Q5.16 -7.19 4.78 -7.48Q4.41 -7.78 3.54 -7.78ZM0.97 -8.75H3.56Q4.9 -8.75 5.63 -8.17Q6.36 -7.59 6.36 -6.53Q6.36 -5.72 5.97 -5.26Q5.59 -4.8 4.82 -4.68Q5.68 -4.55 6.17 -3.95Q6.66 -3.34 6.66 -2.4Q6.66 -1.21 5.88 -0.61Q5.1 0 3.56 0H0.97Z"/><path id="tg67" d="M6.29 -0.31Q5.84 -0.07 5.36 0.05Q4.89 0.17 4.35 0.17Q2.67 0.17 1.74 -1.02Q0.81 -2.21 0.81 -4.37Q0.81 -6.51 1.75 -7.71Q2.68 -8.91 4.35 -8.91Q4.89 -8.91 5.36 -8.79Q5.84 -8.67 6.29 -8.43V-7.21Q5.85 -7.57 5.36 -7.76Q4.86 -7.95 4.35 -7.95Q3.2 -7.95 2.62 -7.05Q2.05 -6.16 2.05 -4.37Q2.05 -2.57 2.62 -1.68Q3.2 -0.79 4.35 -0.79Q4.87 -0.79 5.36 -0.98Q5.86 -1.17 6.29 -1.52Z"/><path id="tg68" d="M2.55 -0.97Q4.05 -0.97 4.64 -1.71Q5.23 -2.44 5.23 -4.37Q5.23 -6.3 4.64 -7.04Q4.05 -7.78 2.55 -7.78H1.99V-0.97ZM2.58 -8.75Q4.58 -8.75 5.53 -7.68Q6.48 -6.62 6.48 -4.37Q6.48 -2.13 5.53 -1.06Q4.58 0 2.58 0H0.8V-8.75Z"/><path id="tg69" d="M1.15 -8.75H6.35V-7.75H2.34V-5.16H6.17V-4.17H2.34V-1H6.46V0H1.15Z"/><path id="tg70" d="M1.37 -8.75H6.52V-7.75H2.55V-5.17H6.15V-4.18H2.55V0H1.37Z"/><path id="tg71" d="M6.47 -0.72Q5.99 -0.28 5.4 -0.06Q4.8 0.17 4.11 0.17Q2.45 0.17 1.52 -1.02Q0.6 -2.21 0.6 -4.37Q0.6 -6.51 1.54 -7.71Q2.47 -8.91 4.14 -8.91Q4.69 -8.91 5.2 -8.75Q5.7 -8.6 6.17 -8.28V-7.07Q5.7 -7.52 5.2 -7.73Q4.7 -7.95 4.14 -7.95Q2.99 -7.95 2.41 -7.05Q1.83 -6.16 1.83 -4.37Q1.83 -2.54 2.39 -1.67Q2.95 -0.79 4.11 -0.79Q4.51 -0.79 4.8 -0.88Q5.1 -0.97 5.34 -1.17V-3.52H4.07V-4.49H6.47Z"/><path id="tg72" d="M0.8 -8.75H1.99V-5.16H5.23V-8.75H6.42V0H5.23V-4.17H1.99V0H0.8Z"/><path id="tg73" d="M1.18 -8.75H6.04V-7.75H4.2V-1H6.04V0H1.18V-1H3.01V-7.75H1.18Z"/><path id="tg74" d="M0.64 -0.36V-1.74Q1.17 -1.27 1.74 -1.03Q2.31 -0.79 2.92 -0.79Q3.76 -0.79 4.09 -1.23Q4.42 -1.66 4.42 -2.85V-7.75H2.19V-8.75H5.6V-2.85Q5.6 -1.2 4.98 -0.52Q4.37 0.17 2.92 0.17Q2.36 0.17 1.8 0.04Q1.24 -0.09 0.64 -0.36Z"/><path id="tg75" d="M0.8 -8.75H1.99V-4.86L5.69 -8.75H7.08L3.67 -5.17L7.18 0H5.75L2.89 -4.38L1.99 -3.42V0H0.8Z"/><path id="tg76" d="M1.26 -8.75H2.45V-1H6.67V0H1.26Z"/><path id="tg77" d="M0.5 -8.75H2.09L3.6 -4.29L5.12 -8.75H6.71V0H5.61V-7.73L4.05 -3.12H3.16L1.59 -7.73V0H0.5Z"/><path id="tg78" d="M0.81 -8.75H2.31L5.27 -1.55V-8.75H6.41V0H4.91L1.96 -7.2V0H0.81Z"/><path id="tg79" d="M5.3 -4.37Q5.3 -6.29 4.91 -7.12Q4.51 -7.95 3.61 -7.95Q2.71 -7.95 2.32 -7.12Q1.92 -6.29 1.92 -4.37Q1.92 -2.44 2.32 -1.62Q2.71 -0.79 3.61 -0.79Q4.51 -0.79 4.91 -1.61Q5.3 -2.44 5.3 -4.37ZM6.54 -4.37Q6.54 -2.08 5.82 -0.96Q5.09 0.17 3.61 0.17Q2.13 0.17 1.41 -0.95Q0.69 -2.07 0.69 -4.37Q0.69 -6.66 1.41 -7.78Q2.13 -8.91 3.61 -8.91Q5.09 -8.91 5.82 -7.78Q6.54 -6.66 6.54 -4.37Z"/><path id="tg80" d="M2.34 -7.78V-4.49H3.71Q4.53 -4.49 4.99 -4.92Q5.45 -5.36 5.45 -6.13Q5.45 -6.91 4.99 -7.34Q4.54 -7.78 3.71 -7.78ZM1.15 -8.75H3.71Q5.17 -8.75 5.93 -8.08Q6.69 -7.42 6.69 -6.13Q6.69 -4.84 5.93 -4.18Q5.18 -3.52 3.71 -3.52H2.34V0H1.15Z"/><path id="tg81" d="M3.84 0.16Q3.8 0.16 3.72 0.16Q3.64 0.17 3.6 0.17Q2.13 0.17 1.41 -0.96Q0.69 -2.08 0.69 -4.37Q0.69 -6.66 1.41 -7.78Q2.13 -8.91 3.61 -8.91Q5.09 -8.91 5.82 -7.78Q6.54 -6.66 6.54 -4.37Q6.54 -2.64 6.14 -1.59Q5.74 -0.54 4.92 -0.12L6.09 1L5.21 1.58ZM5.3 -4.37Q5.3 -6.29 4.91 -7.12Q4.51 -7.95 3.61 -7.95Q2.71 -7.95 2.32 -7.12Q1.92 -6.29 1.92 -4.37Q1.92 -2.44 2.32 -1.62Q2.71 -0.79 3.61 -0.79Q4.51 -0.79 4.91 -1.61Q5.3 -2.44 5.3 -4.37Z"/><path id="tg82" d="M4.45 -4.13Q4.91 -4.01 5.23 -3.69Q5.55 -3.36 6.04 -2.39L7.22 0H5.95L4.91 -2.21Q4.46 -3.15 4.1 -3.42Q3.74 -3.7 3.16 -3.7H2.03V0H0.84V-8.75H3.28Q4.72 -8.75 5.48 -8.1Q6.25 -7.45 6.25 -6.22Q6.25 -5.35 5.78 -4.8Q5.31 -4.25 4.45 -4.13ZM2.03 -7.78V-4.67H3.32Q4.17 -4.67 4.59 -5.05Q5 -5.43 5 -6.22Q5 -6.97 4.56 -7.37Q4.12 -7.78 3.28 -7.78Z"/><path id="tg83" d="M5.93 -8.45V-7.25Q5.39 -7.59 4.85 -7.77Q4.31 -7.95 3.76 -7.95Q2.92 -7.95 2.43 -7.56Q1.95 -7.17 1.95 -6.5Q1.95 -5.92 2.26 -5.62Q2.58 -5.31 3.46 -5.11L4.08 -4.97Q5.31 -4.68 5.87 -4.07Q6.43 -3.45 6.43 -2.39Q6.43 -1.14 5.66 -0.49Q4.89 0.17 3.41 0.17Q2.79 0.17 2.17 0.04Q1.55 -0.09 0.93 -0.36V-1.62Q1.6 -1.19 2.2 -0.99Q2.8 -0.79 3.41 -0.79Q4.31 -0.79 4.8 -1.19Q5.3 -1.59 5.3 -2.31Q5.3 -2.97 4.96 -3.32Q4.62 -3.66 3.77 -3.85L3.13 -4Q1.92 -4.27 1.37 -4.83Q0.81 -5.38 0.81 -6.32Q0.81 -7.49 1.6 -8.2Q2.39 -8.91 3.7 -8.91Q4.2 -8.91 4.76 -8.79Q5.31 -8.68 5.93 -8.45Z"/><path id="tg84" d="M0.28 -8.75H6.95V-7.75H4.21V0H3.02V-7.75H0.28Z"/><path id="tg85" d="M0.86 -3.36V-8.75H2.05V-2.82Q2.05 -2.18 2.09 -1.91Q2.12 -1.63 2.21 -1.49Q2.4 -1.14 2.75 -0.97Q3.11 -0.79 3.61 -0.79Q4.12 -0.79 4.47 -0.97Q4.82 -1.14 5.02 -1.49Q5.1 -1.63 5.14 -1.9Q5.17 -2.17 5.17 -2.81V-8.75H6.36V-3.36Q6.36 -2.02 6.19 -1.45Q6.02 -0.88 5.61 -0.52Q5.23 -0.17 4.73 0Q4.23 0.17 3.61 0.17Q2.99 0.17 2.5 0Q2 -0.17 1.61 -0.52Q1.2 -0.88 1.03 -1.46Q0.86 -2.03 0.86 -3.36Z"/><path id="tg86" d="M3.61 -1 5.67 -8.75H6.89L4.33 0H2.89L0.33 -8.75H1.56Z"/><path id="tg89" d="M0.22 -8.75H1.48L3.61 -4.89L5.74 -8.75H7.01L4.2 -3.93V0H3.01V-3.93Z"/><path id="tg90" d="M1.04 -8.75H6.72V-7.85L2.15 -1H6.85V0H0.91V-0.9L5.36 -7.75H1.04Z"/><path id="tg183" d="M2.87 -5.06H4.34V-3.28H2.87Z"/><path id="tg8226" d="M1.87 -4.46Q1.87 -5.19 2.37 -5.69Q2.88 -6.19 3.61 -6.19Q4.34 -6.19 4.84 -5.69Q5.35 -5.19 5.35 -4.46Q5.35 -3.74 4.84 -3.23Q4.33 -2.72 3.6 -2.72Q2.87 -2.72 2.37 -3.23Q1.87 -3.73 1.87 -4.46Z"/>
<clipPath id="bn-strip"><rect y="300" width="1200" height="28"/></clipPath>
</defs>
<style>
@keyframes k0{0%,10.312%{opacity:1;transform:scaleY(1)}10.625%,14.062%{opacity:0;transform:scaleY(0)}18.438%,100%{opacity:1;transform:scaleY(1)}}
@keyframes k1{0%,10.312%{opacity:1;transform:scaleY(1)}10.625%,14.375%{opacity:0;transform:scaleY(0)}18.75%,100%{opacity:1;transform:scaleY(1)}}
@keyframes k2{0%,10.312%{opacity:1;transform:scaleY(1)}10.625%,14.688%{opacity:0;transform:scaleY(0)}19.062%,100%{opacity:1;transform:scaleY(1)}}
@keyframes k3{0%,10.312%{opacity:1;transform:scaleY(1)}10.625%,15%{opacity:0;transform:scaleY(0)}19.375%,100%{opacity:1;transform:scaleY(1)}}
@keyframes k4{0%,10.312%{opacity:1;transform:scaleY(1)}10.625%,15.313%{opacity:0;transform:scaleY(0)}19.688%,100%{opacity:1;transform:scaleY(1)}}
@keyframes k5{0%,10.312%{opacity:1;transform:scaleY(1)}10.625%,15.625%{opacity:0;transform:scaleY(0)}20%,100%{opacity:1;transform:scaleY(1)}}
@keyframes k6{0%,10.312%{opacity:1;transform:scaleY(1)}10.625%,15.937%{opacity:0;transform:scaleY(0)}20.312%,100%{opacity:1;transform:scaleY(1)}}
@keyframes k7{0%,10.312%{opacity:1;transform:scaleY(1)}10.625%,16.25%{opacity:0;transform:scaleY(0)}20.625%,100%{opacity:1;transform:scaleY(1)}}
@keyframes k8{0%,10.312%{opacity:1;transform:scaleY(1)}10.625%,16.563%{opacity:0;transform:scaleY(0)}20.938%,100%{opacity:1;transform:scaleY(1)}}
@keyframes k9{0%,10.312%{opacity:1;transform:scaleY(1)}10.625%,16.875%{opacity:0;transform:scaleY(0)}21.25%,100%{opacity:1;transform:scaleY(1)}}
@keyframes k10{0%,10.312%{opacity:1;transform:scaleY(1)}10.625%,17.188%{opacity:0;transform:scaleY(0)}21.562%,100%{opacity:1;transform:scaleY(1)}}
@keyframes k11{0%,10.312%{opacity:1;transform:scaleY(1)}10.625%,17.5%{opacity:0;transform:scaleY(0)}21.875%,100%{opacity:1;transform:scaleY(1)}}
@keyframes k12{0%,10.312%{opacity:1;transform:scaleY(1)}10.625%,17.812%{opacity:0;transform:scaleY(0)}22.188%,100%{opacity:1;transform:scaleY(1)}}
@keyframes k13{0%,10.312%{opacity:1;transform:scaleY(1)}10.625%,18.125%{opacity:0;transform:scaleY(0)}22.5%,100%{opacity:1;transform:scaleY(1)}}
@keyframes k14{0%,10.312%{opacity:1;transform:scaleY(1)}10.625%,18.438%{opacity:0;transform:scaleY(0)}22.813%,100%{opacity:1;transform:scaleY(1)}}
@keyframes k15{0%,10.312%{opacity:1;transform:scaleY(1)}10.625%,18.75%{opacity:0;transform:scaleY(0)}23.125%,100%{opacity:1;transform:scaleY(1)}}
@keyframes k16{0%,10.312%{opacity:1;transform:scaleY(1)}10.625%,19.062%{opacity:0;transform:scaleY(0)}23.438%,100%{opacity:1;transform:scaleY(1)}}
@keyframes k17{0%,10.312%{opacity:1;transform:scaleY(1)}10.625%,19.375%{opacity:0;transform:scaleY(0)}23.75%,100%{opacity:1;transform:scaleY(1)}}
@keyframes k18{0%,10.312%{opacity:1;transform:none}10.625%,11.875%{opacity:0;transform:translateY(12px)}16.25%,100%{opacity:1;transform:none}}
@keyframes k19{0%,10.312%{opacity:1;transform:none}10.625%,13%{opacity:0;transform:translateY(12px)}18%,100%{opacity:1;transform:none}}
@keyframes k20{0%,10.312%{opacity:1;transform:none}10.625%,14.688%{opacity:0;transform:translateY(12px)}19.688%,100%{opacity:1;transform:none}}
@keyframes k21{0%,10.312%{transform:scaleX(1)}10.625%,16.562%{transform:scaleX(0)}20.312%,100%{transform:scaleX(1)}}
@keyframes k22{0%,10.312%{stroke-dashoffset:0}10.625%,15%{stroke-dashoffset:1}26.875%,100%{stroke-dashoffset:0}}
@keyframes k23{0%,10.312%{opacity:1}10.625%,18.75%{opacity:0}27.5%,100%{opacity:1}}
@keyframes k24{0%,10.312%{opacity:1;transform:scale(1)}10.625%,20.312%{opacity:0;transform:scale(0)}23.125%,100%{opacity:1;transform:scale(1)}}
@keyframes k25{0%,10.312%{opacity:1;transform:scale(1)}10.625%,23.438%{opacity:0;transform:scale(0)}26.25%,100%{opacity:1;transform:scale(1)}}
@keyframes k26{0%,10.312%{opacity:1;transform:scale(1)}10.625%,26.25%{opacity:0;transform:scale(0)}29.063%,100%{opacity:1;transform:scale(1)}}
@keyframes k27{0%,10.312%{width:734px}10.625%,19.688%{width:0}39.062%,100%{width:734px}}
@keyframes k28{0%,10.312%{transform:translateX(728px)}10.625%,19.688%{transform:translateX(0)}39.062%,100%{transform:translateX(728px)}}
@keyframes k29{0%,10.312%{opacity:1}10.625%,27.5%{opacity:0}30.625%,100%{opacity:1}}
@keyframes cyc{0%,7.5%{opacity:1}10%,11.125%{opacity:0}11.25%,100%{opacity:1}}
.cycle{animation:cyc 16.0s linear infinite}
.rule,.pop,.candle,.breath{transform-box:fill-box}
.rule{transform-origin:0 50%}
.pop{transform-origin:center}
.candle,.breath{transform-origin:50% 100%}
@keyframes breath{from{transform:scaleY(1)}to{transform:scaleY(.82)}}
.blink{animation:blink 1.1s steps(1) infinite}
@keyframes blink{0%,49%{opacity:1}50%,100%{opacity:0}}
.ring{opacity:0;transform-box:fill-box;transform-origin:center;animation:ring 2.8s ease-out 2.7s infinite}
@keyframes ring{0%{opacity:.75;transform:scale(1)}100%{opacity:0;transform:scale(4.2)}}
.drift{animation:drift 10s linear infinite}
@keyframes drift{from{transform:translateX(0)}to{transform:translateX(-40px)}}
.tk{animation:tick 30s linear infinite}
@keyframes tick{from{transform:translateX(0)}to{transform:translateX(-2074px)}}
@media (prefers-reduced-motion:reduce){.a,.cycle,.blink,.ring,.drift,.breath,.tk{animation:none!important}.ring{opacity:0}.dot{display:none}}
</style>
<g clip-path="url(#bn-clip)">
<rect width="1200" height="328" fill="#090A09"/>
<rect width="1200" height="32" fill="#111211"/>
<circle cx="24" cy="16" r="6" fill="#FF5F57"/><circle cx="44" cy="16" r="6" fill="#FEBC2E"/><circle cx="64" cy="16" r="6" fill="#28C840"/>
<text x="600" y="21" text-anchor="middle" font-family='ui-monospace,"SFMono-Regular","DM Mono",Menlo,Consolas,monospace' font-size="13" fill="#9a9c96" letter-spacing="0.5">kavy@github</text>
<rect y="32" width="1200" height="1" fill="#2a2c29"/>
<rect class="drift" y="33" width="1240" height="267" fill="url(#bn-grid)"/>
<g class="cycle">
<rect class="a" style="animation:k23 16.0s cubic-bezier(.2,.7,.2,1) infinite" x="760" y="33" width="440" height="267" fill="url(#bn-fade)"/>
<g fill="#00FF66" fill-opacity="0.13">
<g class="a breath" style="animation:breath 3.20s ease-in-out 0.00s infinite alternate"><rect class="a candle" style="animation:k0 16.0s cubic-bezier(.2,.7,.2,1) infinite" x="786" y="244" width="10" height="28" rx="2"/></g>
<g class="a breath" style="animation:breath 3.55s ease-in-out 0.21s infinite alternate"><rect class="a candle" style="animation:k1 16.0s cubic-bezier(.2,.7,.2,1) infinite" x="808" y="226" width="10" height="46" rx="2"/></g>
<g class="a breath" style="animation:breath 3.90s ease-in-out 0.42s infinite alternate"><rect class="a candle" style="animation:k2 16.0s cubic-bezier(.2,.7,.2,1) infinite" x="830" y="238" width="10" height="34" rx="2"/></g>
<g class="a breath" style="animation:breath 4.25s ease-in-out 0.63s infinite alternate"><rect class="a candle" style="animation:k3 16.0s cubic-bezier(.2,.7,.2,1) infinite" x="852" y="210" width="10" height="62" rx="2"/></g>
<g class="a breath" style="animation:breath 4.60s ease-in-out 0.84s infinite alternate"><rect class="a candle" style="animation:k4 16.0s cubic-bezier(.2,.7,.2,1) infinite" x="874" y="220" width="10" height="52" rx="2"/></g>
<g class="a breath" style="animation:breath 3.20s ease-in-out 1.05s infinite alternate"><rect class="a candle" style="animation:k5 16.0s cubic-bezier(.2,.7,.2,1) infinite" x="896" y="194" width="10" height="78" rx="2"/></g>
<g class="a breath" style="animation:breath 3.55s ease-in-out 1.26s infinite alternate"><rect class="a candle" style="animation:k6 16.0s cubic-bezier(.2,.7,.2,1) infinite" x="918" y="212" width="10" height="60" rx="2"/></g>
<g class="a breath" style="animation:breath 3.90s ease-in-out 1.47s infinite alternate"><rect class="a candle" style="animation:k7 16.0s cubic-bezier(.2,.7,.2,1) infinite" x="940" y="180" width="10" height="92" rx="2"/></g>
<g class="a breath" style="animation:breath 4.25s ease-in-out 1.68s infinite alternate"><rect class="a candle" style="animation:k8 16.0s cubic-bezier(.2,.7,.2,1) infinite" x="962" y="198" width="10" height="74" rx="2"/></g>
<g class="a breath" style="animation:breath 4.60s ease-in-out 1.89s infinite alternate"><rect class="a candle" style="animation:k9 16.0s cubic-bezier(.2,.7,.2,1) infinite" x="984" y="202" width="10" height="70" rx="2"/></g>
<g class="a breath" style="animation:breath 3.20s ease-in-out 2.10s infinite alternate"><rect class="a candle" style="animation:k10 16.0s cubic-bezier(.2,.7,.2,1) infinite" x="1006" y="168" width="10" height="104" rx="2"/></g>
<g class="a breath" style="animation:breath 3.55s ease-in-out 2.31s infinite alternate"><rect class="a candle" style="animation:k11 16.0s cubic-bezier(.2,.7,.2,1) infinite" x="1028" y="184" width="10" height="88" rx="2"/></g>
<g class="a breath" style="animation:breath 3.90s ease-in-out 2.52s infinite alternate"><rect class="a candle" style="animation:k12 16.0s cubic-bezier(.2,.7,.2,1) infinite" x="1050" y="154" width="10" height="118" rx="2"/></g>
<g class="a breath" style="animation:breath 4.25s ease-in-out 2.73s infinite alternate"><rect class="a candle" style="animation:k13 16.0s cubic-bezier(.2,.7,.2,1) infinite" x="1072" y="176" width="10" height="96" rx="2"/></g>
<g class="a breath" style="animation:breath 4.60s ease-in-out 2.94s infinite alternate"><rect class="a candle" style="animation:k14 16.0s cubic-bezier(.2,.7,.2,1) infinite" x="1094" y="140" width="10" height="132" rx="2"/></g>
<g class="a breath" style="animation:breath 3.20s ease-in-out 3.15s infinite alternate"><rect class="a candle" style="animation:k15 16.0s cubic-bezier(.2,.7,.2,1) infinite" x="1116" y="162" width="10" height="110" rx="2"/></g>
<g class="a breath" style="animation:breath 3.55s ease-in-out 3.36s infinite alternate"><rect class="a candle" style="animation:k16 16.0s cubic-bezier(.2,.7,.2,1) infinite" x="1138" y="148" width="10" height="124" rx="2"/></g>
<g class="a breath" style="animation:breath 3.90s ease-in-out 3.57s infinite alternate"><rect class="a candle" style="animation:k17 16.0s cubic-bezier(.2,.7,.2,1) infinite" x="1160" y="126" width="10" height="146" rx="2"/></g>
</g>
<path class="a" style="animation:k22 16.0s ease-in-out infinite" pathLength="1" stroke-dasharray="1" d="M 800 246 C 850 242, 890 230, 930 218 S 1000 190, 1050 164 S 1110 114, 1160 84" fill="none" stroke="url(#bn-signal)" stroke-width="2.4" stroke-linecap="round"/>
<circle class="a pop" style="animation:k24 16.0s cubic-bezier(.2,.7,.2,1) infinite" cx="930" cy="218" r="4" fill="#090A09" stroke="#00FF66" stroke-width="1.8"/>
<circle class="a pop" style="animation:k25 16.0s cubic-bezier(.2,.7,.2,1) infinite" cx="1050" cy="164" r="4" fill="#090A09" stroke="#00FF66" stroke-width="1.8"/>
<circle class="a pop" style="animation:k26 16.0s cubic-bezier(.2,.7,.2,1) infinite" cx="1160" cy="84" r="4.5" fill="#B6FF2E"/>
<circle class="ring" cx="1160" cy="84" r="4.5" fill="none" stroke="#B6FF2E" stroke-width="1.6"/>
<g class="a dot" style="animation:k29 16.0s cubic-bezier(.2,.7,.2,1) infinite"><circle r="9" fill="#B6FF2E" fill-opacity="0.18"/><circle r="3.6" fill="#B6FF2E"/><animateMotion dur="4.5s" begin="0s" repeatCount="indefinite" rotate="0"><mpath href="#bn-route"/></animateMotion></g>
<text class="a" style="animation:k18 16.0s cubic-bezier(.2,.7,.2,1) infinite" x="56" y="84" font-family='ui-monospace,"SFMono-Regular","DM Mono",Menlo,Consolas,monospace' font-size="13" fill="#00FF66" letter-spacing="2.4">FINANCE × ENGINEERING × QUANTITATIVE SYSTEMS</text>
<text class="a" style="animation:k19 16.0s cubic-bezier(.2,.7,.2,1) infinite" x="56" y="144" font-family='Georgia,"Times New Roman",serif' font-size="50" font-weight="700" fill="#F4F5F2">Krishna Anubhav</text>
<text class="a" style="animation:k20 16.0s cubic-bezier(.2,.7,.2,1) infinite" x="56" y="184" font-family='system-ui,-apple-system,"Segoe UI",Helvetica,Arial,sans-serif' font-size="19" fill="#c7c9c4">Engineer <tspan fill="#B6FF2E">→</tspan> SaaS founder/operator <tspan fill="#B6FF2E">→</tspan> MBA <tspan fill="#B6FF2E">→</tspan> Investment banking</text>
<rect class="a rule" style="animation:k21 16.0s cubic-bezier(.2,.7,.2,1) infinite" x="56" y="206" width="48" height="2" fill="url(#bn-signal)"/>
<g clip-path="url(#bn-type)"><text x="56" y="244" textLength="728" lengthAdjust="spacing" font-family='ui-monospace,"SFMono-Regular","DM Mono",Menlo,Consolas,monospace' font-size="15" fill="#9a9c96">I spent years building businesses. Now I&#39;m learning how investors value them.</text></g>
<g class="a" style="animation:k28 16.0s steps(77,end) infinite;transform:translateX(728px)"><rect class="blink" x="58" y="231" width="8" height="17" fill="#B6FF2E"/></g>
</g>
<rect y="300" width="1200" height="28" fill="#0d0e0c"/>
<rect y="300" width="1200" height="1" fill="#2a2c29"/>
<g clip-path="url(#bn-strip)"><g class="tk" aria-hidden="true" style="animation-duration:37.7s"><g transform="translate(0 319)"><g fill="#00FF66"><use href="#tg49" x="24.00"/><use href="#tg53" x="31.22"/></g><g fill="#9a9c96"><use href="#tg80" x="45.67"/><use href="#tg85" x="52.90"/><use href="#tg76" x="60.12"/><use href="#tg76" x="67.35"/><use href="#tg82" x="81.80"/><use href="#tg69" x="89.02"/><use href="#tg81" x="96.25"/><use href="#tg85" x="103.47"/><use href="#tg69" x="110.70"/><use href="#tg83" x="117.92"/><use href="#tg84" x="125.14"/><use href="#tg83" x="132.37"/><use href="#tg77" x="146.82"/><use href="#tg69" x="154.04"/><use href="#tg82" x="161.27"/><use href="#tg71" x="168.49"/><use href="#tg69" x="175.72"/><use href="#tg68" x="182.94"/><use href="#tg73" x="197.39"/><use href="#tg78" x="204.61"/><use href="#tg84" x="211.84"/><use href="#tg79" x="219.06"/><use href="#tg79" x="233.51"/><use href="#tg84" x="240.74"/><use href="#tg72" x="247.96"/><use href="#tg69" x="255.19"/><use href="#tg82" x="262.41"/><use href="#tg80" x="276.86"/><use href="#tg82" x="284.09"/><use href="#tg79" x="291.31"/><use href="#tg74" x="298.53"/><use href="#tg69" x="305.76"/><use href="#tg67" x="312.98"/><use href="#tg84" x="320.21"/><use href="#tg83" x="327.43"/></g><g fill="#3d3f3b"><use href="#tg8226" x="349.11"/></g><g fill="#00FF66"><use href="#tg52" x="370.78"/><use href="#tg49" x="378.01"/></g><g fill="#9a9c96"><use href="#tg79" x="392.45"/><use href="#tg80" x="399.68"/><use href="#tg69" x="406.90"/><use href="#tg78" x="414.13"/><use href="#tg69" x="421.35"/><use href="#tg68" x="428.58"/><use href="#tg73" x="443.03"/><use href="#tg78" x="450.25"/><use href="#tg84" x="464.70"/><use href="#tg79" x="471.93"/><use href="#tg84" x="479.15"/><use href="#tg65" x="486.37"/><use href="#tg76" x="493.60"/></g><g fill="#3d3f3b"><use href="#tg8226" x="515.27"/></g><g fill="#00FF66"><use href="#tg54" x="536.95"/></g><g fill="#9a9c96"><use href="#tg79" x="551.40"/><use href="#tg82" x="558.62"/><use href="#tg73" x="565.85"/><use href="#tg71" x="573.07"/><use href="#tg73" x="580.29"/><use href="#tg78" x="587.52"/><use href="#tg65" x="594.74"/><use href="#tg76" x="601.97"/><use href="#tg80" x="616.42"/><use href="#tg85" x="623.64"/><use href="#tg66" x="630.87"/><use href="#tg76" x="638.09"/><use href="#tg73" x="645.32"/><use href="#tg67" x="652.54"/><use href="#tg82" x="666.99"/><use href="#tg69" x="674.21"/><use href="#tg80" x="681.44"/><use href="#tg79" x="688.66"/><use href="#tg83" x="695.89"/></g><g fill="#3d3f3b"><use href="#tg8226" x="717.56"/></g><g fill="#00FF66"><use href="#tg77" x="739.24"/><use href="#tg69" x="746.46"/><use href="#tg82" x="753.68"/><use href="#tg71" x="760.91"/><use href="#tg69" x="768.13"/><use href="#tg68" x="775.36"/><use href="#tg73" x="789.81"/><use href="#tg78" x="797.03"/><use href="#tg84" x="804.26"/><use href="#tg79" x="811.48"/></g><g fill="#9a9c96"><use href="#tg81" x="825.93"/><use href="#tg85" x="833.16"/><use href="#tg65" x="840.38"/><use href="#tg78" x="847.60"/><use href="#tg84" x="854.83"/><use href="#tg76" x="862.05"/><use href="#tg73" x="869.28"/><use href="#tg66" x="876.50"/><use href="#tg44" x="883.73"/><use href="#tg69" x="898.18"/><use href="#tg68" x="905.40"/><use href="#tg71" x="912.63"/><use href="#tg65" x="919.85"/><use href="#tg82" x="927.07"/><use href="#tg84" x="934.30"/><use href="#tg79" x="941.52"/><use href="#tg79" x="948.75"/><use href="#tg76" x="955.97"/><use href="#tg83" x="963.20"/><use href="#tg44" x="970.42"/><use href="#tg69" x="984.87"/><use href="#tg86" x="992.10"/><use href="#tg69" x="999.32"/><use href="#tg82" x="1006.55"/><use href="#tg45" x="1013.77"/><use href="#tg71" x="1020.99"/><use href="#tg65" x="1028.22"/><use href="#tg85" x="1035.44"/><use href="#tg90" x="1042.67"/><use href="#tg89" x="1049.89"/><use href="#tg44" x="1057.12"/><use href="#tg82" x="1071.57"/><use href="#tg73" x="1078.79"/><use href="#tg83" x="1086.02"/><use href="#tg75" x="1093.24"/><use href="#tg70" x="1100.47"/><use href="#tg79" x="1107.69"/><use href="#tg76" x="1114.91"/><use href="#tg73" x="1122.14"/><use href="#tg79" x="1129.36"/><use href="#tg45" x="1136.59"/><use href="#tg76" x="1143.81"/><use href="#tg73" x="1151.04"/><use href="#tg66" x="1158.26"/><use href="#tg44" x="1165.49"/><use href="#tg84" x="1179.94"/><use href="#tg82" x="1187.16"/><use href="#tg65" x="1194.39"/><use href="#tg68" x="1201.61"/><use href="#tg69" x="1208.83"/><use href="#tg45" x="1216.06"/><use href="#tg70" x="1223.28"/><use href="#tg82" x="1230.51"/><use href="#tg65" x="1237.73"/><use href="#tg77" x="1244.96"/><use href="#tg69" x="1252.18"/><use href="#tg44" x="1259.41"/><use href="#tg70" x="1273.86"/><use href="#tg73" x="1281.08"/><use href="#tg78" x="1288.30"/><use href="#tg65" x="1295.53"/><use href="#tg78" x="1302.75"/><use href="#tg67" x="1309.98"/><use href="#tg69" x="1317.20"/><use href="#tg80" x="1324.43"/><use href="#tg89" x="1331.65"/><use href="#tg44" x="1338.88"/><use href="#tg70" x="1353.33"/><use href="#tg73" x="1360.55"/><use href="#tg78" x="1367.78"/><use href="#tg65" x="1375.00"/><use href="#tg78" x="1382.22"/><use href="#tg67" x="1389.45"/><use href="#tg69" x="1396.67"/><use href="#tg84" x="1403.90"/><use href="#tg79" x="1411.12"/><use href="#tg79" x="1418.35"/><use href="#tg76" x="1425.57"/><use href="#tg75" x="1432.80"/><use href="#tg73" x="1440.02"/><use href="#tg84" x="1447.25"/><use href="#tg44" x="1454.47"/><use href="#tg83" x="1468.92"/><use href="#tg84" x="1476.14"/><use href="#tg79" x="1483.37"/><use href="#tg67" x="1490.59"/><use href="#tg75" x="1497.82"/><use href="#tg83" x="1505.04"/><use href="#tg84" x="1512.27"/><use href="#tg65" x="1519.49"/><use href="#tg84" x="1526.72"/><use href="#tg83" x="1533.94"/></g><g fill="#3d3f3b"><use href="#tg8226" x="1555.62"/></g><g fill="#00FF66"><use href="#tg76" x="1577.29"/><use href="#tg65" x="1584.51"/><use href="#tg78" x="1591.74"/><use href="#tg71" x="1598.96"/><use href="#tg85" x="1606.19"/><use href="#tg65" x="1613.41"/><use href="#tg71" x="1620.64"/><use href="#tg69" x="1627.86"/><use href="#tg83" x="1635.09"/></g><g fill="#9a9c96"><use href="#tg80" x="1649.53"/><use href="#tg89" x="1656.76"/><use href="#tg84" x="1663.98"/><use href="#tg72" x="1671.21"/><use href="#tg79" x="1678.43"/><use href="#tg78" x="1685.66"/><use href="#tg52" x="1700.11"/><use href="#tg49" x="1707.33"/><use href="#tg37" x="1714.56"/><use href="#tg183" x="1729.01"/><use href="#tg82" x="1743.45"/><use href="#tg85" x="1750.68"/><use href="#tg83" x="1757.90"/><use href="#tg84" x="1765.13"/><use href="#tg51" x="1779.58"/><use href="#tg54" x="1786.80"/><use href="#tg37" x="1794.03"/><use href="#tg183" x="1808.48"/><use href="#tg67" x="1822.93"/><use href="#tg43" x="1830.15"/><use href="#tg43" x="1837.37"/><use href="#tg57" x="1851.82"/><use href="#tg37" x="1859.05"/><use href="#tg183" x="1873.50"/><use href="#tg74" x="1887.95"/><use href="#tg65" x="1895.17"/><use href="#tg86" x="1902.40"/><use href="#tg65" x="1909.62"/><use href="#tg83" x="1916.85"/><use href="#tg67" x="1924.07"/><use href="#tg82" x="1931.29"/><use href="#tg73" x="1938.52"/><use href="#tg80" x="1945.74"/><use href="#tg84" x="1952.97"/><use href="#tg55" x="1967.42"/><use href="#tg37" x="1974.64"/></g><g fill="#3d3f3b"><use href="#tg8226" x="1996.32"/></g></g><g transform="translate(0 319)"><g fill="#00FF66"><use href="#tg49" x="2098.00"/><use href="#tg53" x="2105.22"/></g><g fill="#9a9c96"><use href="#tg80" x="2119.67"/><use href="#tg85" x="2126.90"/><use href="#tg76" x="2134.12"/><use href="#tg76" x="2141.35"/><use href="#tg82" x="2155.80"/><use href="#tg69" x="2163.02"/><use href="#tg81" x="2170.25"/><use href="#tg85" x="2177.47"/><use href="#tg69" x="2184.70"/><use href="#tg83" x="2191.92"/><use href="#tg84" x="2199.14"/><use href="#tg83" x="2206.37"/><use href="#tg77" x="2220.82"/><use href="#tg69" x="2228.04"/><use href="#tg82" x="2235.27"/><use href="#tg71" x="2242.49"/><use href="#tg69" x="2249.72"/><use href="#tg68" x="2256.94"/><use href="#tg73" x="2271.39"/><use href="#tg78" x="2278.61"/><use href="#tg84" x="2285.84"/><use href="#tg79" x="2293.06"/><use href="#tg79" x="2307.51"/><use href="#tg84" x="2314.74"/><use href="#tg72" x="2321.96"/><use href="#tg69" x="2329.19"/><use href="#tg82" x="2336.41"/><use href="#tg80" x="2350.86"/><use href="#tg82" x="2358.09"/><use href="#tg79" x="2365.31"/><use href="#tg74" x="2372.53"/><use href="#tg69" x="2379.76"/><use href="#tg67" x="2386.98"/><use href="#tg84" x="2394.21"/><use href="#tg83" x="2401.43"/></g><g fill="#3d3f3b"><use href="#tg8226" x="2423.11"/></g><g fill="#00FF66"><use href="#tg52" x="2444.78"/><use href="#tg49" x="2452.01"/></g><g fill="#9a9c96"><use href="#tg79" x="2466.45"/><use href="#tg80" x="2473.68"/><use href="#tg69" x="2480.90"/><use href="#tg78" x="2488.13"/><use href="#tg69" x="2495.35"/><use href="#tg68" x="2502.58"/><use href="#tg73" x="2517.03"/><use href="#tg78" x="2524.25"/><use href="#tg84" x="2538.70"/><use href="#tg79" x="2545.93"/><use href="#tg84" x="2553.15"/><use href="#tg65" x="2560.37"/><use href="#tg76" x="2567.60"/></g><g fill="#3d3f3b"><use href="#tg8226" x="2589.27"/></g><g fill="#00FF66"><use href="#tg54" x="2610.95"/></g><g fill="#9a9c96"><use href="#tg79" x="2625.40"/><use href="#tg82" x="2632.62"/><use href="#tg73" x="2639.85"/><use href="#tg71" x="2647.07"/><use href="#tg73" x="2654.29"/><use href="#tg78" x="2661.52"/><use href="#tg65" x="2668.74"/><use href="#tg76" x="2675.97"/><use href="#tg80" x="2690.42"/><use href="#tg85" x="2697.64"/><use href="#tg66" x="2704.87"/><use href="#tg76" x="2712.09"/><use href="#tg73" x="2719.32"/><use href="#tg67" x="2726.54"/><use href="#tg82" x="2740.99"/><use href="#tg69" x="2748.21"/><use href="#tg80" x="2755.44"/><use href="#tg79" x="2762.66"/><use href="#tg83" x="2769.89"/></g><g fill="#3d3f3b"><use href="#tg8226" x="2791.56"/></g><g fill="#00FF66"><use href="#tg77" x="2813.24"/><use href="#tg69" x="2820.46"/><use href="#tg82" x="2827.68"/><use href="#tg71" x="2834.91"/><use href="#tg69" x="2842.13"/><use href="#tg68" x="2849.36"/><use href="#tg73" x="2863.81"/><use href="#tg78" x="2871.03"/><use href="#tg84" x="2878.26"/><use href="#tg79" x="2885.48"/></g><g fill="#9a9c96"><use href="#tg81" x="2899.93"/><use href="#tg85" x="2907.16"/><use href="#tg65" x="2914.38"/><use href="#tg78" x="2921.60"/><use href="#tg84" x="2928.83"/><use href="#tg76" x="2936.05"/><use href="#tg73" x="2943.28"/><use href="#tg66" x="2950.50"/><use href="#tg44" x="2957.73"/><use href="#tg69" x="2972.18"/><use href="#tg68" x="2979.40"/><use href="#tg71" x="2986.63"/><use href="#tg65" x="2993.85"/><use href="#tg82" x="3001.07"/><use href="#tg84" x="3008.30"/><use href="#tg79" x="3015.52"/><use href="#tg79" x="3022.75"/><use href="#tg76" x="3029.97"/><use href="#tg83" x="3037.20"/><use href="#tg44" x="3044.42"/><use href="#tg69" x="3058.87"/><use href="#tg86" x="3066.10"/><use href="#tg69" x="3073.32"/><use href="#tg82" x="3080.55"/><use href="#tg45" x="3087.77"/><use href="#tg71" x="3094.99"/><use href="#tg65" x="3102.22"/><use href="#tg85" x="3109.44"/><use href="#tg90" x="3116.67"/><use href="#tg89" x="3123.89"/><use href="#tg44" x="3131.12"/><use href="#tg82" x="3145.57"/><use href="#tg73" x="3152.79"/><use href="#tg83" x="3160.02"/><use href="#tg75" x="3167.24"/><use href="#tg70" x="3174.47"/><use href="#tg79" x="3181.69"/><use href="#tg76" x="3188.91"/><use href="#tg73" x="3196.14"/><use href="#tg79" x="3203.36"/><use href="#tg45" x="3210.59"/><use href="#tg76" x="3217.81"/><use href="#tg73" x="3225.04"/><use href="#tg66" x="3232.26"/><use href="#tg44" x="3239.49"/><use href="#tg84" x="3253.94"/><use href="#tg82" x="3261.16"/><use href="#tg65" x="3268.39"/><use href="#tg68" x="3275.61"/><use href="#tg69" x="3282.83"/><use href="#tg45" x="3290.06"/><use href="#tg70" x="3297.28"/><use href="#tg82" x="3304.51"/><use href="#tg65" x="3311.73"/><use href="#tg77" x="3318.96"/><use href="#tg69" x="3326.18"/><use href="#tg44" x="3333.41"/><use href="#tg70" x="3347.86"/><use href="#tg73" x="3355.08"/><use href="#tg78" x="3362.30"/><use href="#tg65" x="3369.53"/><use href="#tg78" x="3376.75"/><use href="#tg67" x="3383.98"/><use href="#tg69" x="3391.20"/><use href="#tg80" x="3398.43"/><use href="#tg89" x="3405.65"/><use href="#tg44" x="3412.88"/><use href="#tg70" x="3427.33"/><use href="#tg73" x="3434.55"/><use href="#tg78" x="3441.78"/><use href="#tg65" x="3449.00"/><use href="#tg78" x="3456.22"/><use href="#tg67" x="3463.45"/><use href="#tg69" x="3470.67"/><use href="#tg84" x="3477.90"/><use href="#tg79" x="3485.12"/><use href="#tg79" x="3492.35"/><use href="#tg76" x="3499.57"/><use href="#tg75" x="3506.80"/><use href="#tg73" x="3514.02"/><use href="#tg84" x="3521.25"/><use href="#tg44" x="3528.47"/><use href="#tg83" x="3542.92"/><use href="#tg84" x="3550.14"/><use href="#tg79" x="3557.37"/><use href="#tg67" x="3564.59"/><use href="#tg75" x="3571.82"/><use href="#tg83" x="3579.04"/><use href="#tg84" x="3586.27"/><use href="#tg65" x="3593.49"/><use href="#tg84" x="3600.72"/><use href="#tg83" x="3607.94"/></g><g fill="#3d3f3b"><use href="#tg8226" x="3629.62"/></g><g fill="#00FF66"><use href="#tg76" x="3651.29"/><use href="#tg65" x="3658.51"/><use href="#tg78" x="3665.74"/><use href="#tg71" x="3672.96"/><use href="#tg85" x="3680.19"/><use href="#tg65" x="3687.41"/><use href="#tg71" x="3694.64"/><use href="#tg69" x="3701.86"/><use href="#tg83" x="3709.09"/></g><g fill="#9a9c96"><use href="#tg80" x="3723.53"/><use href="#tg89" x="3730.76"/><use href="#tg84" x="3737.98"/><use href="#tg72" x="3745.21"/><use href="#tg79" x="3752.43"/><use href="#tg78" x="3759.66"/><use href="#tg52" x="3774.11"/><use href="#tg49" x="3781.33"/><use href="#tg37" x="3788.56"/><use href="#tg183" x="3803.01"/><use href="#tg82" x="3817.45"/><use href="#tg85" x="3824.68"/><use href="#tg83" x="3831.90"/><use href="#tg84" x="3839.13"/><use href="#tg51" x="3853.58"/><use href="#tg54" x="3860.80"/><use href="#tg37" x="3868.03"/><use href="#tg183" x="3882.48"/><use href="#tg67" x="3896.93"/><use href="#tg43" x="3904.15"/><use href="#tg43" x="3911.37"/><use href="#tg57" x="3925.82"/><use href="#tg37" x="3933.05"/><use href="#tg183" x="3947.50"/><use href="#tg74" x="3961.95"/><use href="#tg65" x="3969.17"/><use href="#tg86" x="3976.40"/><use href="#tg65" x="3983.62"/><use href="#tg83" x="3990.85"/><use href="#tg67" x="3998.07"/><use href="#tg82" x="4005.29"/><use href="#tg73" x="4012.52"/><use href="#tg80" x="4019.74"/><use href="#tg84" x="4026.97"/><use href="#tg55" x="4041.42"/><use href="#tg37" x="4048.64"/></g><g fill="#3d3f3b"><use href="#tg8226" x="4070.32"/></g></g></g></g>
</g>
</svg>
