<svg width="1200" height="236" viewBox="0 0 1200 236" xmlns="http://www.w3.org/2000/svg" role="img" aria-label="Krishna Anubhav on GitHub: 6 original public repos; 38 pull requests opened on other projects, 13 merged, 23 open and 2 closed without merging; on GitHub since 2022; language mix across own repos by bytes: Rust 38%, Python 36%, HTML 12%, JavaScript 7%">
  <defs>
    <pattern id="grid2" width="40" height="40" patternUnits="userSpaceOnUse">
      <path d="M 40 0 L 0 0 0 40" fill="none" stroke="#1a1b1a" stroke-width="1"/>
    </pattern>
    <clipPath id="clip2"><rect width="1200" height="236" rx="14"/></clipPath>
  </defs>
  <g clip-path="url(#clip2)" font-family='ui-monospace, "SFMono-Regular", "DM Mono", Menlo, Consolas, monospace'>
    <rect width="1200" height="236" fill="#090A09"/>
    <rect width="1200" height="236" fill="url(#grid2)"/>
    <text x="56" y="50" font-size="13" fill="#8a8c87" letter-spacing="1.5">GITHUB DATA, REGENERATED BY scripts/update_profile.py</text>
    <text x="56" y="102" font-size="34" font-weight="700" fill="#F4F5F2">6</text>
    <text x="56" y="126" font-size="14" fill="#9a9c96">original public repos</text>
    <text x="316" y="102" font-size="34" font-weight="700" fill="#F4F5F2">38</text>
    <text x="316" y="126" font-size="14" fill="#9a9c96">pull requests to other projects</text>
    <text x="646" y="102" font-size="34" font-weight="700" fill="#B6FF2E">13</text>
    <text x="646" y="126" font-size="14" fill="#9a9c96">merged, 23 open, 2 closed</text>
    <text x="936" y="102" font-size="34" font-weight="700" fill="#F4F5F2">2022</text>
    <text x="936" y="126" font-size="14" fill="#9a9c96">on GitHub since</text>
    <text x="56" y="164" font-size="13" fill="#8a8c87" letter-spacing="1">LANGUAGE MIX BY BYTES, OWN REPOS</text>
    <rect x="56" y="178" width="1088" height="10" rx="5" fill="#1a1b1a"/>
    <rect x="56" y="178" width="443" height="10" fill="#00FF66"/>
    <rect x="501" y="178" width="416" height="10" fill="#B6FF2E"/>
    <rect x="919" y="178" width="136" height="10" fill="#8a8c87"/>
    <rect x="1057" y="178" width="87" height="10" fill="#5d605a"/>
    <g font-size="14">
      <circle cx="60" cy="209" r="5" fill="#00FF66"/>
      <text x="72" y="214" fill="#9a9c96">Rust 38%</text>
      <circle cx="168" cy="209" r="5" fill="#B6FF2E"/>
      <text x="180" y="214" fill="#9a9c96">Python 36%</text>
      <circle cx="293" cy="209" r="5" fill="#8a8c87"/>
      <text x="305" y="214" fill="#9a9c96">HTML 12%</text>
      <circle cx="401" cy="209" r="5" fill="#5d605a"/>
      <text x="413" y="214" fill="#9a9c96">JavaScript 7%</text>
    </g>
  </g>
</svg>
