<svg width="1200" height="220" viewBox="0 0 1200 220" xmlns="http://www.w3.org/2000/svg" role="img" aria-label="Krishna Anubhav GitHub signal: 4 projects shipped, on GitHub since 2022, based in India, open-source patches: QuantLib &amp; 1 more; language mix across own repos is Python 63%, JavaScript 17%, C++ 10%, HTML 9%">
  <defs>
    <pattern id="grid2" width="40" height="40" patternUnits="userSpaceOnUse">
      <path d="M 40 0 L 0 0 0 40" fill="none" stroke="#1a1b1a" stroke-width="1"/>
    </pattern>
    <clipPath id="clip2"><rect width="1200" height="220" rx="14"/></clipPath>
  </defs>
  <style>
    .mono { font-family: ui-monospace, "SFMono-Regular", "DM Mono", Menlo, Consolas, monospace; }
  </style>

  <g clip-path="url(#clip2)">
    <rect width="1200" height="220" fill="#090A09"/>
    <rect width="1200" height="220" fill="url(#grid2)"/>

    <g class="mono">
      <text x="56" y="50" font-size="13" fill="#6b6d68" letter-spacing="1.5">SIGNAL</text>

      <text x="56" y="94" font-size="30" font-weight="700" fill="#F4F5F2">4</text>
      <text x="56" y="114" font-size="12" fill="#8a8c87">projects shipped</text>

      <text x="230" y="94" font-size="30" font-weight="700" fill="#F4F5F2">2022</text>
      <text x="230" y="114" font-size="12" fill="#8a8c87">on GitHub since</text>

      <text x="430" y="94" font-size="30" font-weight="700" fill="#F4F5F2">IN</text>
      <text x="430" y="114" font-size="12" fill="#8a8c87">based in India</text>

      <text x="630" y="94" font-size="30" font-weight="700" fill="#B6FF2E">OSS</text>
      <text x="630" y="114" font-size="12" fill="#8a8c87">patches: QuantLib &amp; 1 more</text>
    </g>

    <text x="56" y="156" font-size="12" class="mono" fill="#6b6d68" letter-spacing="1">LANGUAGE MIX (BY BYTES, OWN REPOS)</text>
    <g>
      <rect x="56" y="168" width="1088" height="10" rx="5" fill="#1a1b1a"/>
      <rect x="56" y="168" width="692" height="10" fill="#00FF66"/>
<rect x="748" y="168" width="181" height="10" fill="#6fd94f"/>
<rect x="929" y="168" width="113" height="10" fill="#3d3f3b"/>
<rect x="1042" y="168" width="102" height="10" fill="#54564f"/>
    </g>
    <g class="mono" font-size="12">
      <circle cx="60" cy="200" r="4" fill="#00FF66"/>
<text x="70" y="204" fill="#8a8c87">Python 63%</text>
<circle cx="174" cy="200" r="4" fill="#6fd94f"/>
<text x="184" y="204" fill="#8a8c87">JavaScript 17%</text>
<circle cx="316" cy="200" r="4" fill="#3d3f3b"/>
<text x="326" y="204" fill="#8a8c87">C++ 10%</text>
<circle cx="409" cy="200" r="4" fill="#54564f"/>
<text x="419" y="204" fill="#8a8c87">HTML 9%</text>
    </g>
  </g>
</svg>
